<mxfile host="app.diagrams.net" agent="Mozilla/5.0 (Macintosh; Intel Mac OS X 10_15_7) AppleWebKit/537.36 (KHTML, like Gecko) Chrome/138.0.0.0 Safari/537.36" version="28.0.6">
  <diagram name="Page-1" id="zQ1OtvWzdY83mu6hgGa7">
    <mxGraphModel dx="1795" dy="1720" grid="1" gridSize="10" guides="1" tooltips="1" connect="1" arrows="1" fold="1" page="1" pageScale="1" pageWidth="850" pageHeight="1100" math="0" shadow="0">
      <root>
        <mxCell id="0" />
        <mxCell id="1" parent="0" />
        <mxCell id="UG15YlCqp0GUrFg8uEiT-71" value="" style="rounded=1;whiteSpace=wrap;html=1;fillColor=#F3E2FF;strokeColor=none;miterlimit=4;arcSize=7;" parent="1" vertex="1">
          <mxGeometry x="-481" y="280" width="960" height="560" as="geometry" />
        </mxCell>
        <mxCell id="UG15YlCqp0GUrFg8uEiT-69" value="" style="rounded=1;whiteSpace=wrap;html=1;fillColor=#E2EDEE;strokeColor=none;arcSize=16;" parent="1" vertex="1">
          <mxGeometry x="-481" width="960" height="240" as="geometry" />
        </mxCell>
        <mxCell id="UG15YlCqp0GUrFg8uEiT-68" value="" style="rounded=1;whiteSpace=wrap;html=1;fillColor=#eeeeee;strokeColor=none;arcSize=12;" parent="1" vertex="1">
          <mxGeometry x="-481" y="-400" width="960" height="360" as="geometry" />
        </mxCell>
        <mxCell id="UG15YlCqp0GUrFg8uEiT-6" value="&lt;div&gt;Data Logger Hardware (Raspberry Pi 4B)&lt;/div&gt;&lt;div&gt;&lt;br&gt;&lt;/div&gt;&lt;div&gt;&lt;br&gt;&lt;/div&gt;&lt;div&gt;&lt;br&gt;&lt;/div&gt;&lt;div&gt;&lt;br&gt;&lt;/div&gt;&lt;div&gt;&lt;br&gt;&lt;/div&gt;&lt;div&gt;&lt;br&gt;&lt;/div&gt;&lt;div&gt;&lt;br&gt;&lt;/div&gt;&lt;div&gt;&lt;br&gt;&lt;/div&gt;&lt;div&gt;&lt;br&gt;&lt;/div&gt;&lt;div&gt;&lt;br&gt;&lt;/div&gt;&lt;div&gt;&lt;br&gt;&lt;/div&gt;&lt;div&gt;&lt;br&gt;&lt;/div&gt;&lt;div&gt;&lt;br&gt;&lt;/div&gt;&lt;div&gt;&lt;br&gt;&lt;/div&gt;&lt;div&gt;&lt;br&gt;&lt;/div&gt;&lt;div&gt;&lt;br&gt;&lt;/div&gt;&lt;div&gt;&lt;br&gt;&lt;/div&gt;&lt;div&gt;&lt;br&gt;&lt;/div&gt;&lt;div&gt;&lt;br&gt;&lt;/div&gt;&lt;div&gt;&lt;br&gt;&lt;/div&gt;" style="rounded=1;whiteSpace=wrap;html=1;fillColor=#d5e8d4;strokeColor=#82b366;" parent="1" vertex="1">
          <mxGeometry x="-270" y="480" width="400" height="320" as="geometry" />
        </mxCell>
        <mxCell id="UG15YlCqp0GUrFg8uEiT-11" style="edgeStyle=orthogonalEdgeStyle;rounded=0;orthogonalLoop=1;jettySize=auto;html=1;exitX=1;exitY=0.5;exitDx=0;exitDy=0;" parent="1" source="UG15YlCqp0GUrFg8uEiT-2" target="UG15YlCqp0GUrFg8uEiT-10" edge="1">
          <mxGeometry relative="1" as="geometry" />
        </mxCell>
        <mxCell id="UG15YlCqp0GUrFg8uEiT-2" value="&lt;div&gt;&lt;br&gt;&lt;/div&gt;&lt;div&gt;&lt;br&gt;&lt;/div&gt;&lt;div&gt;&lt;br&gt;&lt;/div&gt;&lt;div&gt;&lt;br&gt;&lt;/div&gt;&lt;div&gt;&lt;br&gt;&lt;/div&gt;&lt;div&gt;&lt;br&gt;&lt;/div&gt;&lt;div&gt;&lt;br&gt;&lt;/div&gt;&lt;div&gt;&lt;br&gt;&lt;/div&gt;&lt;div&gt;&lt;br&gt;&lt;/div&gt;Vehicle&amp;nbsp;&lt;div&gt;CAN Network&lt;/div&gt;" style="rounded=1;whiteSpace=wrap;html=1;" parent="1" vertex="1">
          <mxGeometry x="-440" y="565" width="119" height="200" as="geometry" />
        </mxCell>
        <mxCell id="UG15YlCqp0GUrFg8uEiT-3" value="Docker Container&lt;div&gt;&lt;br&gt;&lt;/div&gt;&lt;div&gt;&lt;br&gt;&lt;/div&gt;&lt;div&gt;&lt;br&gt;&lt;/div&gt;&lt;div&gt;&lt;br&gt;&lt;/div&gt;&lt;div&gt;&lt;br&gt;&lt;/div&gt;" style="rounded=1;whiteSpace=wrap;html=1;fillColor=#dae8fc;strokeColor=#6c8ebf;" parent="1" vertex="1">
          <mxGeometry x="-240" y="510" width="340" height="100" as="geometry" />
        </mxCell>
        <mxCell id="UG15YlCqp0GUrFg8uEiT-4" value="" style="shape=cylinder3;whiteSpace=wrap;html=1;boundedLbl=1;backgroundOutline=1;size=15;" parent="1" vertex="1">
          <mxGeometry x="-220" y="550" width="40" height="40" as="geometry" />
        </mxCell>
        <mxCell id="UG15YlCqp0GUrFg8uEiT-5" value="influxDB for&lt;div&gt;offline logging&lt;/div&gt;" style="text;html=1;align=center;verticalAlign=middle;whiteSpace=wrap;rounded=0;" parent="1" vertex="1">
          <mxGeometry x="-170" y="555" width="80" height="30" as="geometry" />
        </mxCell>
        <mxCell id="UG15YlCqp0GUrFg8uEiT-9" value="" style="sketch=0;aspect=fixed;pointerEvents=1;shadow=0;dashed=0;html=1;strokeColor=none;labelPosition=center;verticalLabelPosition=bottom;verticalAlign=top;align=center;fillColor=#00020A;shape=mxgraph.mscae.enterprise.wireless_connection;rotation=-90;" parent="1" vertex="1">
          <mxGeometry x="368" y="390" width="42" height="50" as="geometry" />
        </mxCell>
        <mxCell id="UG15YlCqp0GUrFg8uEiT-10" value="CAN Logging &amp;amp; Decoding Service" style="rounded=1;whiteSpace=wrap;html=1;fillColor=#fff2cc;strokeColor=#d6b656;" parent="1" vertex="1">
          <mxGeometry x="-240" y="625" width="160" height="80" as="geometry" />
        </mxCell>
        <mxCell id="UG15YlCqp0GUrFg8uEiT-12" value="Live Telemetry Service" style="rounded=1;whiteSpace=wrap;html=1;fillColor=#fff2cc;strokeColor=#d6b656;" parent="1" vertex="1">
          <mxGeometry x="-81" y="538" width="160" height="25" as="geometry" />
        </mxCell>
        <mxCell id="UG15YlCqp0GUrFg8uEiT-28" style="edgeStyle=orthogonalEdgeStyle;rounded=0;orthogonalLoop=1;jettySize=auto;html=1;exitX=0.5;exitY=1;exitDx=0;exitDy=0;entryX=1;entryY=0.75;entryDx=0;entryDy=0;endArrow=none;endFill=0;" parent="1" source="UG15YlCqp0GUrFg8uEiT-15" target="UG15YlCqp0GUrFg8uEiT-6" edge="1">
          <mxGeometry relative="1" as="geometry" />
        </mxCell>
        <mxCell id="UG15YlCqp0GUrFg8uEiT-15" value="4G LTE&amp;nbsp;&lt;br&gt;Cellular Modem in vehicle" style="rounded=1;whiteSpace=wrap;html=1;fillColor=#f5f5f5;fontColor=#333333;strokeColor=#666666;" parent="1" vertex="1">
          <mxGeometry x="329" y="520" width="120" height="120" as="geometry" />
        </mxCell>
        <mxCell id="UG15YlCqp0GUrFg8uEiT-16" style="edgeStyle=orthogonalEdgeStyle;rounded=0;orthogonalLoop=1;jettySize=auto;html=1;exitX=0.5;exitY=0;exitDx=0;exitDy=0;entryX=0;entryY=0.5;entryDx=0;entryDy=0;entryPerimeter=0;endArrow=none;endFill=0;" parent="1" source="UG15YlCqp0GUrFg8uEiT-15" target="UG15YlCqp0GUrFg8uEiT-9" edge="1">
          <mxGeometry relative="1" as="geometry" />
        </mxCell>
        <mxCell id="UG15YlCqp0GUrFg8uEiT-17" value="Vehicle Antenna&lt;div&gt;for&amp;nbsp;&lt;span style=&quot;background-color: transparent; color: light-dark(rgb(0, 0, 0), rgb(255, 255, 255));&quot;&gt;4G&lt;/span&gt;&lt;/div&gt;&lt;div&gt;live telemetry&lt;/div&gt;" style="text;html=1;align=center;verticalAlign=middle;whiteSpace=wrap;rounded=0;" parent="1" vertex="1">
          <mxGeometry x="336.5" y="350" width="105" height="30" as="geometry" />
        </mxCell>
        <mxCell id="UG15YlCqp0GUrFg8uEiT-19" style="edgeStyle=orthogonalEdgeStyle;rounded=0;orthogonalLoop=1;jettySize=auto;html=1;exitX=0;exitY=0.5;exitDx=0;exitDy=0;exitPerimeter=0;endArrow=none;endFill=0;entryX=1;entryY=0.25;entryDx=0;entryDy=0;" parent="1" source="UG15YlCqp0GUrFg8uEiT-18" target="UG15YlCqp0GUrFg8uEiT-6" edge="1">
          <mxGeometry relative="1" as="geometry">
            <mxPoint x="210" y="510" as="targetPoint" />
            <Array as="points">
              <mxPoint x="160" y="560" />
            </Array>
          </mxGeometry>
        </mxCell>
        <mxCell id="UG15YlCqp0GUrFg8uEiT-18" value="" style="sketch=0;aspect=fixed;pointerEvents=1;shadow=0;dashed=0;html=1;strokeColor=none;labelPosition=center;verticalLabelPosition=bottom;verticalAlign=top;align=center;fillColor=#00020A;shape=mxgraph.mscae.enterprise.wireless_connection;rotation=-90;" parent="1" vertex="1">
          <mxGeometry x="139" y="390" width="42" height="50" as="geometry" />
        </mxCell>
        <mxCell id="UG15YlCqp0GUrFg8uEiT-20" value="Vehicle Antenna for Pi WiFi (created if cellular access fails on startup)" style="text;html=1;align=center;verticalAlign=middle;whiteSpace=wrap;rounded=0;" parent="1" vertex="1">
          <mxGeometry x="99.99999999999999" y="340" width="120" height="30" as="geometry" />
        </mxCell>
        <mxCell id="UG15YlCqp0GUrFg8uEiT-24" value="Cloud DB Sync Service" style="rounded=1;whiteSpace=wrap;html=1;fillColor=#fff2cc;strokeColor=#d6b656;" parent="1" vertex="1">
          <mxGeometry x="-81" y="576" width="160" height="25" as="geometry" />
        </mxCell>
        <mxCell id="UG15YlCqp0GUrFg8uEiT-29" value="" style="ellipse;shape=cloud;whiteSpace=wrap;html=1;" parent="1" vertex="1">
          <mxGeometry x="-296" y="-425" width="610" height="385" as="geometry" />
        </mxCell>
        <mxCell id="UG15YlCqp0GUrFg8uEiT-54" style="edgeStyle=orthogonalEdgeStyle;rounded=0;orthogonalLoop=1;jettySize=auto;html=1;exitX=1;exitY=0.5;exitDx=0;exitDy=0;" parent="1" source="UG15YlCqp0GUrFg8uEiT-30" target="UG15YlCqp0GUrFg8uEiT-55" edge="1">
          <mxGeometry relative="1" as="geometry">
            <mxPoint x="354" y="-250.46153846153857" as="targetPoint" />
          </mxGeometry>
        </mxCell>
        <mxCell id="UG15YlCqp0GUrFg8uEiT-30" value="Docker Container&lt;div&gt;&lt;br&gt;&lt;/div&gt;&lt;div&gt;&lt;br&gt;&lt;/div&gt;&lt;div&gt;&lt;br&gt;&lt;/div&gt;&lt;div&gt;&lt;br&gt;&lt;/div&gt;&lt;div&gt;&lt;br&gt;&lt;/div&gt;&lt;div&gt;&lt;br&gt;&lt;/div&gt;&lt;div&gt;&lt;br&gt;&lt;/div&gt;&lt;div&gt;&lt;br&gt;&lt;/div&gt;&lt;div&gt;&lt;br&gt;&lt;/div&gt;&lt;div&gt;&lt;br&gt;&lt;/div&gt;&lt;div&gt;&lt;br&gt;&lt;/div&gt;&lt;div&gt;&lt;br&gt;&lt;/div&gt;" style="rounded=1;whiteSpace=wrap;html=1;fillColor=#dae8fc;strokeColor=#6c8ebf;" parent="1" vertex="1">
          <mxGeometry x="-141" y="-330" width="361" height="200" as="geometry" />
        </mxCell>
        <mxCell id="UG15YlCqp0GUrFg8uEiT-31" value="" style="shape=cylinder3;whiteSpace=wrap;html=1;boundedLbl=1;backgroundOutline=1;size=15;" parent="1" vertex="1">
          <mxGeometry x="-121" y="-280" width="40" height="60" as="geometry" />
        </mxCell>
        <mxCell id="UG15YlCqp0GUrFg8uEiT-32" value="influxDB for&lt;div&gt;internet storage of all datalogs &amp;amp; metadata&lt;/div&gt;" style="text;html=1;align=center;verticalAlign=middle;whiteSpace=wrap;rounded=0;" parent="1" vertex="1">
          <mxGeometry x="-81" y="-260" width="80" height="30" as="geometry" />
        </mxCell>
        <mxCell id="UG15YlCqp0GUrFg8uEiT-36" value="Automated data analysis scripts" style="rounded=1;whiteSpace=wrap;html=1;fillColor=#fff2cc;strokeColor=#d6b656;" parent="1" vertex="1">
          <mxGeometry x="50" y="-190" width="150" height="40" as="geometry" />
        </mxCell>
        <mxCell id="UG15YlCqp0GUrFg8uEiT-37" value="Automated video syncing" style="rounded=1;whiteSpace=wrap;html=1;fillColor=#fff2cc;strokeColor=#d6b656;" parent="1" vertex="1">
          <mxGeometry x="-111" y="-190" width="151" height="40" as="geometry" />
        </mxCell>
        <mxCell id="UG15YlCqp0GUrFg8uEiT-42" style="edgeStyle=orthogonalEdgeStyle;rounded=0;orthogonalLoop=1;jettySize=auto;html=1;exitX=1;exitY=0.5;exitDx=0;exitDy=0;entryX=0;entryY=0.25;entryDx=0;entryDy=0;" parent="1" source="UG15YlCqp0GUrFg8uEiT-40" target="UG15YlCqp0GUrFg8uEiT-30" edge="1">
          <mxGeometry relative="1" as="geometry" />
        </mxCell>
        <mxCell id="UG15YlCqp0GUrFg8uEiT-40" value="Grab video from online storage" style="rounded=1;whiteSpace=wrap;html=1;" parent="1" vertex="1">
          <mxGeometry x="-453" y="-300" width="160" height="40" as="geometry" />
        </mxCell>
        <mxCell id="UG15YlCqp0GUrFg8uEiT-43" style="edgeStyle=orthogonalEdgeStyle;rounded=0;orthogonalLoop=1;jettySize=auto;html=1;exitX=1;exitY=0.5;exitDx=0;exitDy=0;entryX=0;entryY=0.75;entryDx=0;entryDy=0;" parent="1" source="UG15YlCqp0GUrFg8uEiT-41" target="UG15YlCqp0GUrFg8uEiT-30" edge="1">
          <mxGeometry relative="1" as="geometry" />
        </mxCell>
        <mxCell id="UG15YlCqp0GUrFg8uEiT-41" value="DB syncing from Pi" style="rounded=1;whiteSpace=wrap;html=1;" parent="1" vertex="1">
          <mxGeometry x="-453" y="-200" width="160" height="40" as="geometry" />
        </mxCell>
        <mxCell id="UG15YlCqp0GUrFg8uEiT-45" value="" style="html=1;verticalLabelPosition=bottom;align=center;labelBackgroundColor=#ffffff;verticalAlign=top;strokeWidth=2;strokeColor=#0080F0;shadow=0;dashed=0;shape=mxgraph.ios7.icons.bluetooth;pointerEvents=1" parent="1" vertex="1">
          <mxGeometry x="277.5" y="400.6" width="15" height="28.799999999999997" as="geometry" />
        </mxCell>
        <mxCell id="UG15YlCqp0GUrFg8uEiT-46" style="edgeStyle=orthogonalEdgeStyle;rounded=0;orthogonalLoop=1;jettySize=auto;html=1;exitX=1;exitY=0.5;exitDx=0;exitDy=0;entryX=0.514;entryY=1.158;entryDx=0;entryDy=0;entryPerimeter=0;endArrow=none;endFill=0;" parent="1" source="UG15YlCqp0GUrFg8uEiT-6" target="UG15YlCqp0GUrFg8uEiT-45" edge="1">
          <mxGeometry relative="1" as="geometry">
            <mxPoint x="100" y="640" as="sourcePoint" />
            <mxPoint x="340" y="470" as="targetPoint" />
          </mxGeometry>
        </mxCell>
        <mxCell id="UG15YlCqp0GUrFg8uEiT-47" value="BLE for DJI Action control" style="text;html=1;align=center;verticalAlign=middle;whiteSpace=wrap;rounded=0;" parent="1" vertex="1">
          <mxGeometry x="240" y="350" width="90" height="30" as="geometry" />
        </mxCell>
        <mxCell id="UG15YlCqp0GUrFg8uEiT-48" value="Camera Control Service" style="rounded=1;whiteSpace=wrap;html=1;fillColor=#fff2cc;strokeColor=#d6b656;" parent="1" vertex="1">
          <mxGeometry x="-60" y="725" width="160" height="40" as="geometry" />
        </mxCell>
        <mxCell id="UG15YlCqp0GUrFg8uEiT-55" value="" style="sketch=0;pointerEvents=1;shadow=0;dashed=0;html=1;strokeColor=none;fillColor=#505050;labelPosition=center;verticalLabelPosition=bottom;verticalAlign=top;outlineConnect=0;align=center;shape=mxgraph.office.concepts.download;" parent="1" vertex="1">
          <mxGeometry x="311.5" y="-258.00153846153853" width="48" height="56" as="geometry" />
        </mxCell>
        <mxCell id="UG15YlCqp0GUrFg8uEiT-56" value="Download&lt;div&gt;data for analysis&lt;/div&gt;" style="text;html=1;align=center;verticalAlign=middle;whiteSpace=wrap;rounded=0;" parent="1" vertex="1">
          <mxGeometry x="381.5" y="-245" width="60" height="30" as="geometry" />
        </mxCell>
        <mxCell id="UG15YlCqp0GUrFg8uEiT-61" style="edgeStyle=orthogonalEdgeStyle;rounded=0;orthogonalLoop=1;jettySize=auto;html=1;exitX=0;exitY=0.5;exitDx=0;exitDy=0;exitPerimeter=0;" parent="1" source="UG15YlCqp0GUrFg8uEiT-59" target="UG15YlCqp0GUrFg8uEiT-64" edge="1">
          <mxGeometry relative="1" as="geometry">
            <mxPoint x="-40.36" y="160" as="targetPoint" />
            <Array as="points">
              <mxPoint x="101" y="135" />
            </Array>
          </mxGeometry>
        </mxCell>
        <mxCell id="UG15YlCqp0GUrFg8uEiT-59" value="" style="sketch=0;aspect=fixed;pointerEvents=1;shadow=0;dashed=0;html=1;strokeColor=none;labelPosition=center;verticalLabelPosition=bottom;verticalAlign=top;align=center;fillColor=#00020A;shape=mxgraph.mscae.enterprise.wireless_connection;rotation=-90;" parent="1" vertex="1">
          <mxGeometry x="79.64" y="70" width="42" height="50" as="geometry" />
        </mxCell>
        <mxCell id="UG15YlCqp0GUrFg8uEiT-60" value="WiFi Connection Service" style="rounded=1;whiteSpace=wrap;html=1;fillColor=#fff2cc;strokeColor=#d6b656;" parent="1" vertex="1">
          <mxGeometry x="-60.36" y="675" width="160.36" height="40" as="geometry" />
        </mxCell>
        <mxCell id="UG15YlCqp0GUrFg8uEiT-62" value="Access influxDB dashboard from 4G hotspot or local car WiFi" style="text;html=1;align=center;verticalAlign=middle;whiteSpace=wrap;rounded=0;" parent="1" vertex="1">
          <mxGeometry x="141.64000000000001" y="80" width="120" height="30" as="geometry" />
        </mxCell>
        <mxCell id="UG15YlCqp0GUrFg8uEiT-64" value="" style="sketch=0;pointerEvents=1;shadow=0;dashed=0;html=1;strokeColor=none;fillColor=#434445;aspect=fixed;labelPosition=center;verticalLabelPosition=bottom;verticalAlign=top;align=center;outlineConnect=0;shape=mxgraph.vvd.nsx_dashboard;" parent="1" vertex="1">
          <mxGeometry x="-201.64999999999998" y="60" width="161.29" height="150" as="geometry" />
        </mxCell>
        <mxCell id="UG15YlCqp0GUrFg8uEiT-65" value="Pit Lane Computer" style="text;html=1;align=center;verticalAlign=middle;whiteSpace=wrap;rounded=0;" parent="1" vertex="1">
          <mxGeometry x="-180.35999999999999" y="20" width="120" height="30" as="geometry" />
        </mxCell>
        <mxCell id="UG15YlCqp0GUrFg8uEiT-66" value="Telemetry&amp;nbsp;&lt;span style=&quot;background-color: transparent; color: light-dark(rgb(0, 0, 0), rgb(255, 255, 255));&quot;&gt;Architecture&lt;/span&gt;" style="text;html=1;align=center;verticalAlign=middle;whiteSpace=wrap;rounded=0;fontSize=32;fontStyle=1" parent="1" vertex="1">
          <mxGeometry x="-202" y="-440" width="402" height="30" as="geometry" />
        </mxCell>
        <mxCell id="UG15YlCqp0GUrFg8uEiT-72" value="In the Cloud" style="text;html=1;align=left;verticalAlign=middle;whiteSpace=wrap;rounded=0;fontStyle=1;fontSize=18;" parent="1" vertex="1">
          <mxGeometry x="-441" y="-400" width="120" height="40" as="geometry" />
        </mxCell>
        <mxCell id="UG15YlCqp0GUrFg8uEiT-74" value="In Pit Lane / At Track" style="text;html=1;align=left;verticalAlign=middle;whiteSpace=wrap;rounded=0;fontStyle=1;fontSize=18;" parent="1" vertex="1">
          <mxGeometry x="-440" width="200" height="40" as="geometry" />
        </mxCell>
        <mxCell id="UG15YlCqp0GUrFg8uEiT-75" value="In Vehicle" style="text;html=1;align=left;verticalAlign=middle;whiteSpace=wrap;rounded=0;fontStyle=1;fontSize=18;" parent="1" vertex="1">
          <mxGeometry x="-440" y="280" width="200" height="40" as="geometry" />
        </mxCell>
        <mxCell id="UG15YlCqp0GUrFg8uEiT-77" value="CAN Devices" style="rounded=1;whiteSpace=wrap;html=1;fillColor=#f8cecc;strokeColor=#b85450;" parent="1" vertex="1">
          <mxGeometry x="-420.5" y="645" width="80" height="40" as="geometry" />
        </mxCell>
        <mxCell id="UG15YlCqp0GUrFg8uEiT-78" value="Analog to CAN Modules" style="rounded=1;whiteSpace=wrap;html=1;fillColor=#f8cecc;strokeColor=#b85450;" parent="1" vertex="1">
          <mxGeometry x="-420.5" y="585" width="80" height="40" as="geometry" />
        </mxCell>
        <mxCell id="UG15YlCqp0GUrFg8uEiT-79" value="&lt;b&gt;Live Telemetry:&lt;/b&gt;&amp;nbsp;&lt;div&gt;If 4G hotspots have cellular access&lt;/div&gt;" style="text;html=1;align=left;verticalAlign=middle;whiteSpace=wrap;rounded=0;" parent="1" vertex="1">
          <mxGeometry x="-441" y="70" width="120" height="30" as="geometry" />
        </mxCell>
        <mxCell id="UG15YlCqp0GUrFg8uEiT-80" value="&lt;b&gt;Offline Analysis: &lt;/b&gt;access data via local vehicle WiFi if no cellular access" style="text;html=1;align=left;verticalAlign=middle;whiteSpace=wrap;rounded=0;" parent="1" vertex="1">
          <mxGeometry x="-441" y="150" width="120" height="30" as="geometry" />
        </mxCell>
        <mxCell id="UG15YlCqp0GUrFg8uEiT-81" value="&lt;b&gt;Cloud DB Sync Service:&lt;/b&gt;&lt;br&gt;If logging offline, this service will sync the local DB with the cloud DB when internet access is restored" style="text;html=1;align=left;verticalAlign=middle;whiteSpace=wrap;rounded=0;fontSize=10;" parent="1" vertex="1">
          <mxGeometry x="-446" y="380" width="226" height="30" as="geometry" />
        </mxCell>
        <mxCell id="UG15YlCqp0GUrFg8uEiT-82" value="&lt;b&gt;WiFi Connection Service:&lt;/b&gt;&lt;br&gt;Checks for cellular access on startup. If none, starts local WiFi hotspot" style="text;html=1;align=left;verticalAlign=middle;whiteSpace=wrap;rounded=0;fontSize=10;" parent="1" vertex="1">
          <mxGeometry x="-174" y="330" width="194" height="30" as="geometry" />
        </mxCell>
        <mxCell id="UG15YlCqp0GUrFg8uEiT-83" value="&lt;b&gt;Camera Control Service&lt;/b&gt;&lt;br&gt;Connects to action camera(s) via BLE. Starts recording when datalogging starts. Records timestap metadata for easy auto syncing of video" style="text;html=1;align=left;verticalAlign=middle;whiteSpace=wrap;rounded=0;fontSize=10;" parent="1" vertex="1">
          <mxGeometry x="-446" y="429.4" width="226" height="30" as="geometry" />
        </mxCell>
        <mxCell id="UG15YlCqp0GUrFg8uEiT-84" value="&lt;b&gt;Live Telemetry Service&lt;/b&gt;&lt;br&gt;If cellular access, send logged data directly to cloud DB for live telemetry" style="text;html=1;align=left;verticalAlign=middle;whiteSpace=wrap;rounded=0;fontSize=10;" parent="1" vertex="1">
          <mxGeometry x="-174" y="380" width="254" height="30" as="geometry" />
        </mxCell>
        <mxCell id="UG15YlCqp0GUrFg8uEiT-86" value="&lt;b&gt;CAN Logging &amp;amp; Decoding Service:&lt;/b&gt;&lt;br&gt;Grabs messages on the bus and decodes them with DBC file. Stores decoded data to database." style="text;html=1;align=left;verticalAlign=middle;whiteSpace=wrap;rounded=0;fontSize=10;" parent="1" vertex="1">
          <mxGeometry x="-446" y="330" width="226" height="30" as="geometry" />
        </mxCell>
        <mxCell id="UG15YlCqp0GUrFg8uEiT-87" value="Auxiliary Sensors Service" style="rounded=1;whiteSpace=wrap;html=1;fillColor=#fff2cc;strokeColor=#d6b656;" parent="1" vertex="1">
          <mxGeometry x="-240" y="725" width="160" height="40" as="geometry" />
        </mxCell>
        <mxCell id="UG15YlCqp0GUrFg8uEiT-88" value="&lt;b&gt;Auxiliary Sensors Service&lt;/b&gt;&lt;br&gt;Logs non CAN sensors on the data logger hardware, including battery voltage, pressure, temperature, humidity. Stores decoded data to database." style="text;html=1;align=left;verticalAlign=middle;whiteSpace=wrap;rounded=0;fontSize=10;" parent="1" vertex="1">
          <mxGeometry x="-174" y="429.4" width="254" height="30" as="geometry" />
        </mxCell>
        <mxCell id="UG15YlCqp0GUrFg8uEiT-89" value="RTC Service" style="rounded=1;whiteSpace=wrap;html=1;fillColor=#fff2cc;strokeColor=#d6b656;" parent="1" vertex="1">
          <mxGeometry x="-60.36" y="625" width="160.36" height="40" as="geometry" />
        </mxCell>
        <mxCell id="UG15YlCqp0GUrFg8uEiT-90" value="&lt;b&gt;RTC Service&lt;/b&gt;&lt;br&gt;Updates OS time from real-time clock peripheral upon startup" style="text;html=1;align=left;verticalAlign=middle;whiteSpace=wrap;rounded=0;fontSize=10;" parent="1" vertex="1">
          <mxGeometry x="-446" y="480" width="146" height="30" as="geometry" />
        </mxCell>
        <mxCell id="WnlWFlWSfWMXelEqkGf7-1" value="Data Analysis Dashboard&lt;br&gt;&amp;amp;&lt;br&gt;Video Sync" style="rounded=1;whiteSpace=wrap;html=1;fillColor=#d5e8d4;strokeColor=#82b366;" vertex="1" parent="1">
          <mxGeometry x="20" y="-290" width="180" height="80" as="geometry" />
        </mxCell>
      </root>
    </mxGraphModel>
  </diagram>
</mxfile>
